<?xml version="1.0" encoding="UTF-8"?>
<svg id="Capa_2" data-name="Capa 2" xmlns="http://www.w3.org/2000/svg" xmlns:xlink="http://www.w3.org/1999/xlink" viewBox="0 0 138.79 29.73">
  <defs>
    <style>
      .cls-1 {
        fill: #14152e;
      }

      .cls-2 {
        fill: #e2271f;
      }

      .cls-3 {
        fill: url(#Degradado_sin_nombre_2);
      }

      .cls-4 {
        fill: url(#Degradado_sin_nombre_4);
      }
    </style>
    <linearGradient id="Degradado_sin_nombre_4" data-name="Degradado sin nombre 4" x1="9.82" y1="3.4" x2="13.75" y2="13.83" gradientTransform="translate(0 33.69) scale(1 -1)" gradientUnits="userSpaceOnUse">
      <stop offset="0" stop-color="#8b1b16"/>
      <stop offset="1" stop-color="#e2271f"/>
    </linearGradient>
    <linearGradient id="Degradado_sin_nombre_2" data-name="Degradado sin nombre 2" x1="7.24" y1="12.94" x2="5.35" y2="40.12" gradientTransform="translate(0 33.69) scale(1 -1)" gradientUnits="userSpaceOnUse">
      <stop offset=".25" stop-color="#6d251c"/>
      <stop offset=".25" stop-color="#6f251c"/>
      <stop offset=".31" stop-color="#892a1d"/>
      <stop offset=".37" stop-color="#9f2e1f"/>
      <stop offset=".44" stop-color="#b03220"/>
      <stop offset=".53" stop-color="#bc3421"/>
      <stop offset=".65" stop-color="#c33521"/>
      <stop offset="1" stop-color="#c53622"/>
    </linearGradient>
  </defs>
  <g id="Capa_2-2" data-name="Capa 2">
    <g id="Capa_1-2" data-name="Capa 1-2">
      <g>
        <path class="cls-1" d="M38.22,21.25l.03-3.78-3.37-.03-.03,3.78-3.2-.03,.08-10.43,3.2,.03-.03,3.74,3.37,.03,.03-3.74,3.2,.03-.08,10.43s-3.2-.03-3.2-.03Z"/>
        <path class="cls-1" d="M51.8,13.05c-.84,2.54-1.68,4.98-2.6,6.7-1.16,2.16-2.75,3.6-5.28,4.4l-.99-2.33c.81-.34,1.46-.67,2.08-1.27l-2.88-7.58,3.2,.03,1.22,3.4,.37,1.29c.64-1.35,1.08-2.74,1.61-4.65l3.28,.03v-.02Z"/>
        <path class="cls-1" d="M57.34,21.4v-.94c-.65,.7-1.13,1.09-2.38,1.08-1.73-.01-3.24-1.33-3.21-4.44,.02-2.94,1.21-4.21,3.11-4.2,.96,0,1.72,.24,2.54,1.06l.03-3.56,3.09,.02-.09,10.99-3.09-.02h0Zm.04-5.07c-.41-.53-.83-.81-1.4-.81-.77,0-1.18,.47-1.19,1.61-.01,1.3,.45,1.85,1.22,1.86,.65,0,1.01-.23,1.36-.72l.02-1.93h-.01Z"/>
        <path class="cls-1" d="M65.02,14.74c.63-1.21,1.26-1.73,2.19-1.73,.29,0,.56,0,1.03,.06l-.23,3.14c-.41-.04-.68-.04-.97-.04-1.01,0-1.69,.24-2.03,1.42l-.03,3.86-3.09-.02,.07-8.33,3.09,.02v1.61h-.03Z"/>
        <path class="cls-1" d="M68.98,13.66c2.02-.53,2.86-.63,3.7-.62,2.48,.02,3.51,1.04,3.49,3.45l-.04,5.06-3.06-.02v-.97c-.63,.71-1.35,1.12-2.26,1.11-1.73-.01-2.71-.62-2.7-2.65,0-1.76,1.2-2.57,3.54-2.55h1.45c0-.71-.2-1.07-1.03-1.07-.6,0-1.49,.11-2.65,.34l-.45-2.06v-.02Zm3.1,4.25c-.68,0-1.08,.18-1.08,.73,0,.5,.35,.81,.88,.81,.5,0,.89-.22,1.22-.49v-1.04h-1.02Z"/>
        <path class="cls-1" d="M82.61,21.6v-.97c-1.07,.71-1.61,1.12-2.55,1.11-1.74-.01-2.69-.94-2.68-3.2l.04-5.3,3.09,.02-.04,4.48c0,.87,.13,1.16,.76,1.17,.51,0,.99-.32,1.39-.78l.04-4.86,3.09,.02-.07,8.33-3.09-.02h.02Z"/>
        <path class="cls-1" d="M87.17,21.64l.09-10.99,3.09,.02-.09,10.99-3.09-.02Z"/>
        <path class="cls-1" d="M93.43,9.36c.91,0,1.74,.54,1.73,1.6,0,1.04-.85,1.57-1.76,1.56-.91,0-1.74-.54-1.73-1.59,0-1.06,.85-1.58,1.76-1.58h0Zm-1.64,12.32l.07-8.33,3.09,.02-.07,8.33-3.09-.02Z"/>
        <path class="cls-1" d="M103.8,20.7c-1.17,.85-2.2,1.21-3.81,1.2-2.24-.02-4.04-1.54-4.02-4.31,.02-2.84,1.71-4.35,4.1-4.33,1.18,0,2.26,.22,3.48,.93l-.85,1.96c-.95-.37-1.59-.46-2.2-.46-.92,0-1.48,.72-1.49,1.92,0,1.15,.53,1.85,1.44,1.86,.72,0,1.59-.21,2.43-.61l.91,1.84h0Z"/>
        <path class="cls-2" d="M110.33,14.29l-.06,7.54-3.18-.03,.06-7.54-3.09-.02,.02-2.89,9.37,.08-.02,2.89-3.09-.02h-.01Z"/>
        <path class="cls-2" d="M121.17,20.73c-1.34,.93-2.52,1.31-3.94,1.3-2.63-.02-4.26-1.5-4.24-4.29,.02-2.84,1.62-4.36,4.31-4.34,2.41,.02,3.92,1.45,3.9,4.03,0,.38-.02,.67-.08,1.15l-5.15-.04c.15,.79,.57,1.12,1.41,1.12,1.13,0,1.87-.21,2.93-.69l.86,1.77h0Zm-2.65-3.83c-.03-.91-.45-1.39-1.24-1.39-.7,0-1.17,.44-1.31,1.37,0,0,2.55,.02,2.55,.02Z"/>
        <path class="cls-2" d="M129.7,20.91c-1.17,.85-2.2,1.21-3.81,1.2-2.24-.02-4.04-1.54-4.02-4.31,.02-2.84,1.71-4.35,4.1-4.33,1.18,0,2.26,.22,3.48,.93l-.85,1.96c-.95-.37-1.59-.46-2.2-.46-.92,0-1.48,.72-1.49,1.92,0,1.15,.53,1.85,1.44,1.86,.72,0,1.59-.21,2.43-.61l.91,1.84h0Z"/>
        <path class="cls-2" d="M133.56,14.88c1.1-.93,1.91-1.32,2.85-1.31,1.74,.01,2.4,.93,2.38,3.18l-.04,5.3-3.09-.02,.03-4.33c0-.87-.13-1.15-.76-1.15-.53,0-.98,.3-1.39,.76l-.04,4.7-3.09-.02,.09-10.99,3.09,.02s-.03,3.86-.03,3.86Z"/>
      </g>
    </g>
    <g>
      <path class="cls-4" d="M26.56,11.44c-.23,0-.47,.07-.68,.21-1.57,1.04-2.6,1.73-5.03,1.73s-3.44-.68-5-1.72c-1.92-1.28-4.31-2.88-8.78-2.9h-.02c-1.91,0-3.53,1.5-3.57,3.41-.04,1.96,1.54,3.56,3.49,3.56,2.42,0,3.46,.69,5.02,1.73,.58,.39,1.21,.81,1.93,1.21v10.01c0,.59,.48,1.07,1.07,1.07h4.8c.59,0,1.07-.48,1.07-1.07v-8.32c2.74,0,4.7-.59,6.25-1.34,.43-.21,.7-.64,.7-1.12v-5.21c0-.73-.6-1.25-1.25-1.25h0Z"/>
      <path class="cls-1" d="M16.95,9.97c1.47,.98,2.08,1.39,3.88,1.39h.02V1.07c0-.59-.48-1.07-1.07-1.07h-4.8c-.59,0-1.07,.48-1.07,1.07v7.11c1.22,.57,2.2,1.22,3.05,1.79h0Z"/>
      <path class="cls-3" d="M9.61,8.96c-.36-.06-.73-.1-1.13-.14-.45-.04-.93-.06-1.43-.07h-.02c-1.91,0-3.53,1.5-3.57,3.41-.04,1.96,1.54,3.56,3.49,3.56,.48,0,.91,.03,1.3,.08"/>
      <rect class="cls-1" width="6.95" height="24.48" rx="1.58" ry="1.58"/>
    </g>
  </g>
</svg>