<?xml version="1.0" encoding="UTF-8"?>
<svg id="Capa_2" data-name="Capa 2" xmlns="http://www.w3.org/2000/svg" xmlns:xlink="http://www.w3.org/1999/xlink" viewBox="0 0 107.14 91.4">
  <defs>
    <style>
      .cls-1 {
        fill: url(#Degradado_sin_nombre_21);
      }

      .cls-2 {
        fill: #14152e;
      }

      .cls-3 {
        fill: url(#Degradado_sin_nombre_10);
      }

      .cls-4 {
        fill: #e2271f;
      }
    </style>
    <linearGradient id="Degradado_sin_nombre_10" data-name="Degradado sin nombre 10" x1="47.33" y1="72.57" x2="56.75" y2="47.59" gradientUnits="userSpaceOnUse">
      <stop offset="0" stop-color="#8b1b16"/>
      <stop offset="1" stop-color="#e2271f"/>
    </linearGradient>
    <linearGradient id="Degradado_sin_nombre_21" data-name="Degradado sin nombre 21" x1="41.13" y1="49.71" x2="36.6" y2="-15.43" gradientUnits="userSpaceOnUse">
      <stop offset=".25" stop-color="#6d251c"/>
      <stop offset=".25" stop-color="#6f251c"/>
      <stop offset=".31" stop-color="#892a1d"/>
      <stop offset=".37" stop-color="#9f2e1f"/>
      <stop offset=".44" stop-color="#b03220"/>
      <stop offset=".53" stop-color="#bc3421"/>
      <stop offset=".65" stop-color="#c33521"/>
      <stop offset="1" stop-color="#c53622"/>
    </linearGradient>
  </defs>
  <g id="Capa_1-2" data-name="Capa 1">
    <g>
      <path class="cls-2" d="M6.56,88.5l.03-3.78-3.37-.03-.03,3.78-3.2-.03,.08-10.43,3.2,.03-.03,3.74,3.37,.03,.03-3.74,3.2,.03-.08,10.43-3.2-.03Z"/>
      <path class="cls-2" d="M20.14,80.3c-.84,2.54-1.68,4.98-2.6,6.7-1.16,2.16-2.75,3.6-5.28,4.4l-.99-2.33c.81-.34,1.46-.67,2.08-1.27l-2.88-7.58,3.2,.03,1.22,3.4,.37,1.29c.64-1.35,1.08-2.74,1.61-4.65l3.28,.03Z"/>
      <path class="cls-2" d="M25.68,88.65v-.94c-.65,.7-1.13,1.09-2.38,1.08-1.73-.01-3.24-1.33-3.21-4.44,.02-2.94,1.21-4.21,3.11-4.2,.96,0,1.72,.24,2.54,1.06l.03-3.56,3.09,.02-.09,10.99-3.09-.02Zm.04-5.08c-.41-.53-.83-.81-1.4-.81-.77,0-1.18,.47-1.19,1.61-.01,1.3,.45,1.85,1.22,1.86,.65,0,1.01-.23,1.36-.72l.02-1.93Z"/>
      <path class="cls-2" d="M33.36,81.99c.63-1.21,1.26-1.73,2.19-1.73,.29,0,.56,0,1.03,.06l-.23,3.14c-.41-.04-.68-.04-.97-.04-1.01,0-1.69,.24-2.03,1.42l-.03,3.86-3.09-.02,.07-8.33,3.09,.02v1.61Z"/>
      <path class="cls-2" d="M37.32,80.91c2.02-.53,2.86-.63,3.7-.62,2.48,.02,3.51,1.04,3.49,3.45l-.04,5.06-3.06-.02v-.97c-.63,.71-1.35,1.12-2.26,1.11-1.73-.01-2.71-.62-2.7-2.65,.01-1.76,1.2-2.57,3.54-2.55h1.45c0-.71-.2-1.07-1.03-1.07-.6,0-1.49,.11-2.65,.34l-.45-2.06Zm3.09,4.25c-.68,0-1.08,.18-1.08,.73,0,.5,.35,.81,.88,.81,.5,0,.89-.22,1.22-.49v-1.04s-1.02,0-1.02,0Z"/>
      <path class="cls-2" d="M50.95,88.85v-.97c-1.07,.71-1.61,1.12-2.55,1.11-1.74-.01-2.69-.94-2.68-3.2l.04-5.3,3.09,.02-.04,4.48c0,.87,.13,1.16,.76,1.17,.51,0,.99-.32,1.39-.78l.04-4.86,3.09,.02-.07,8.33-3.09-.02Z"/>
      <path class="cls-2" d="M55.51,88.89l.09-10.99,3.09,.02-.09,10.99-3.09-.02Z"/>
      <path class="cls-2" d="M61.77,76.61c.91,0,1.74,.54,1.73,1.6,0,1.04-.85,1.57-1.76,1.56-.91,0-1.74-.54-1.73-1.59,0-1.06,.85-1.58,1.76-1.58Zm-1.64,12.31l.07-8.33,3.09,.02-.07,8.33-3.09-.02Z"/>
      <path class="cls-2" d="M72.14,87.95c-1.17,.85-2.2,1.21-3.81,1.2-2.24-.02-4.04-1.54-4.02-4.31,.02-2.84,1.71-4.35,4.1-4.33,1.18,0,2.26,.22,3.48,.93l-.85,1.96c-.95-.37-1.59-.46-2.2-.46-.92,0-1.48,.72-1.49,1.92,0,1.15,.53,1.85,1.44,1.86,.72,0,1.59-.21,2.43-.61l.91,1.84Z"/>
      <path class="cls-4" d="M78.67,81.54l-.06,7.54-3.18-.03,.06-7.54-3.09-.02,.02-2.89,9.37,.08-.02,2.89-3.09-.02Z"/>
      <path class="cls-4" d="M89.51,87.98c-1.34,.93-2.52,1.31-3.94,1.3-2.63-.02-4.26-1.5-4.24-4.29,.02-2.84,1.62-4.36,4.31-4.34,2.41,.02,3.92,1.45,3.9,4.03,0,.38-.02,.67-.08,1.15l-5.15-.04c.15,.79,.57,1.12,1.41,1.12,1.13,0,1.87-.21,2.93-.69l.86,1.77Zm-2.65-3.82c-.03-.91-.45-1.39-1.24-1.39-.7,0-1.17,.44-1.31,1.37l2.55,.02Z"/>
      <path class="cls-4" d="M98.04,88.16c-1.17,.85-2.2,1.21-3.81,1.2-2.24-.02-4.04-1.54-4.02-4.31,.02-2.84,1.71-4.35,4.1-4.33,1.18,0,2.26,.22,3.48,.93l-.85,1.96c-.95-.37-1.59-.46-2.2-.46-.92,0-1.48,.72-1.49,1.92,0,1.15,.53,1.85,1.44,1.86,.72,0,1.59-.21,2.43-.61l.91,1.84Z"/>
      <path class="cls-4" d="M101.9,82.13c1.1-.93,1.91-1.32,2.85-1.31,1.74,.01,2.4,.93,2.38,3.18l-.04,5.3-3.09-.02,.03-4.33c0-.87-.13-1.15-.76-1.15-.53,0-.98,.3-1.39,.76l-.04,4.7-3.09-.02,.09-10.99,3.09,.02-.03,3.86Z"/>
    </g>
    <g>
      <path class="cls-3" d="M87.43,27.41c-.55,0-1.12,.16-1.64,.5-3.76,2.5-6.24,4.14-12.06,4.14s-8.25-1.64-11.98-4.13c-4.61-3.07-10.34-6.89-21.05-6.95-.02,0-.03,0-.05,0-4.57,0-8.45,3.6-8.55,8.17-.1,4.7,3.68,8.54,8.36,8.54,5.8,0,8.28,1.65,12.03,4.14,1.4,.94,2.91,1.94,4.63,2.89v23.98c0,1.42,1.15,2.57,2.57,2.57h11.51c1.42,0,2.57-1.15,2.57-2.57v-19.93c6.56,0,11.26-1.41,14.98-3.2,1.03-.5,1.68-1.54,1.68-2.68v-12.49c0-1.75-1.44-2.99-2.99-2.99Z"/>
      <path class="cls-2" d="M64.42,23.9c3.53,2.35,4.99,3.32,9.31,3.32,.01,0,.02,0,.04,0V2.57c0-1.42-1.15-2.57-2.57-2.57h-11.51c-1.42,0-2.57,1.15-2.57,2.57V19.62c2.93,1.37,5.28,2.93,7.31,4.28Z"/>
      <path class="cls-1" d="M46.82,21.47c-.86-.14-1.76-.25-2.7-.34-1.08-.1-2.23-.15-3.43-.16-.02,0-.03,0-.05,0-4.57,0-8.45,3.6-8.55,8.17-.1,4.7,3.68,8.54,8.36,8.54,1.16,0,2.19,.07,3.12,.19"/>
      <rect class="cls-2" x="23.79" y="0" width="16.65" height="58.67" rx="3.79" ry="3.79"/>
    </g>
  </g>
</svg>